<mxfile host="65bd71144e">
    <diagram name="ページ1" id="lNJrbynWoLwK0mc-II1J">
        <mxGraphModel dx="1432" dy="1222" grid="1" gridSize="10" guides="1" tooltips="1" connect="1" arrows="1" fold="1" page="1" pageScale="1" pageWidth="827" pageHeight="1169" background="light-dark(#ffffff, #68303e)" math="0" shadow="0">
            <root>
                <mxCell id="0"/>
                <mxCell id="1" parent="0"/>
                <mxCell id="eRMYUOb0QhH7tjIeQmLX-2" value="" style="whiteSpace=wrap;html=1;strokeColor=none;" parent="1" vertex="1">
                    <mxGeometry x="180" y="120" width="1280" height="720" as="geometry"/>
                </mxCell>
                <mxCell id="eRMYUOb0QhH7tjIeQmLX-4" value="" style="rounded=0;whiteSpace=wrap;html=1;strokeColor=none;fillColor=light-dark(#F2ABD5,#EDEDED);" parent="1" vertex="1">
                    <mxGeometry x="180" y="470" width="1280" height="370" as="geometry"/>
                </mxCell>
                <mxCell id="eRMYUOb0QhH7tjIeQmLX-5" value="" style="rounded=0;whiteSpace=wrap;html=1;strokeColor=none;fillColor=light-dark(#97DAF3,#EDEDED);" parent="1" vertex="1">
                    <mxGeometry x="180" y="120" width="1280" height="360" as="geometry"/>
                </mxCell>
                <mxCell id="eRMYUOb0QhH7tjIeQmLX-7" value="" style="html=1;strokeWidth=2;shape=manualInput;whiteSpace=wrap;rounded=1;size=107;arcSize=11;strokeColor=none;fillColor=light-dark(#F2ABD5,#EDEDED);" parent="1" vertex="1">
                    <mxGeometry x="1220" y="370" width="240" height="190" as="geometry"/>
                </mxCell>
                <mxCell id="eRMYUOb0QhH7tjIeQmLX-8" value="" style="html=1;strokeWidth=2;shape=manualInput;whiteSpace=wrap;rounded=1;size=107;arcSize=11;strokeColor=none;fillColor=light-dark(#97DAF3,#EDEDED);rotation=180;" parent="1" vertex="1">
                    <mxGeometry x="180" y="400" width="240" height="190" as="geometry"/>
                </mxCell>
                <mxCell id="eRMYUOb0QhH7tjIeQmLX-9" value="" style="rounded=1;whiteSpace=wrap;html=1;arcSize=5;strokeColor=none;fillColor=#FDFDFE;" parent="1" vertex="1">
                    <mxGeometry x="220" y="160" width="1200" height="640" as="geometry"/>
                </mxCell>
            </root>
        </mxGraphModel>
    </diagram>
</mxfile>